<svg xmlns="http://www.w3.org/2000/svg" width="64" height="64"><defs><clipPath clipPathUnits="userSpaceOnUse" id="a"><path d="M315.676 429.168h148.848v-13.354H315.676v13.354z"/></clipPath><clipPath clipPathUnits="userSpaceOnUse" id="b"><path d="M458.16 426.513h13.457V409.07H458.16v17.443z"/></clipPath><clipPath clipPathUnits="userSpaceOnUse" id="c"><path d="M498.278 338.347h47.582v-16.808h-47.582v16.808z"/></clipPath><clipPath clipPathUnits="userSpaceOnUse" id="d"><path d="M491.147 343.14h14.692v-10.965h-14.692v10.965z"/></clipPath><clipPath clipPathUnits="userSpaceOnUse" id="e"><path d="M317.073 343.998h96.384v-9.914h-96.384v9.914z"/></clipPath><clipPath clipPathUnits="userSpaceOnUse" id="f"><path d="M409.513 352.782h16.059v-16.44h-16.059v16.44z"/></clipPath><clipPath clipPathUnits="userSpaceOnUse" id="g"><path d="M319.941 404.757h130.818v-39.099H319.941v39.099z"/></clipPath><clipPath clipPathUnits="userSpaceOnUse" id="h"><path d="M304.383 373.77h19.503v-18.607h-19.503v18.607z"/></clipPath><clipPath clipPathUnits="userSpaceOnUse" id="i"><path d="M522.876 447.742h82.974v-6.153h-82.974v6.153z"/></clipPath><clipPath clipPathUnits="userSpaceOnUse" id="j"><path d="M602.76 453.794h11.782v-17.687H602.76v17.687z"/></clipPath><clipPath clipPathUnits="userSpaceOnUse" id="k"><path d="M591.934 429.936h23.644v-15.298h-23.644v15.298z"/></clipPath><clipPath clipPathUnits="userSpaceOnUse" id="l"><path d="M587.283 419.381h8.614V409.34h-8.614v10.041z"/></clipPath><clipPath clipPathUnits="userSpaceOnUse" id="m"><path d="M536.52 421.855h34.763v-19.828H536.52v19.828z"/></clipPath><clipPath clipPathUnits="userSpaceOnUse" id="n"><path d="M528.241 427.849h14.284V416.64h-14.284v11.209z"/></clipPath></defs><path d="M212.87-383.901H55.37v-138.087h157.5V-383.9zm580.568 88.116H360V-526.85h433.438v231.065z" fill="#2e4b50"/><path d="M121.642-601.529c-2.214-1.164-4.546-2.091-6.956-2.817 2.101-4.183 3.139-8.238 3.425-12.574a143.26 143.26 0 0 0 10.529-1.729 28.976 28.976 0 0 1-.473 3.371 31.446 31.446 0 0 1-6.525 13.75m-18.3 11.36c4.28-3.125 7.504-7.256 10.198-12.03a37.274 37.274 0 0 1 6.467 2.522c-4.456 4.65-10.27 7.923-16.665 9.507m-46.67-19.464a25.275 25.275 0 0 1-2.07-7.36c4.684.943 9.424 1.504 14.189 1.812.647 4.415 2.264 8.597 4.607 12.34-2.935 1.077-5.735 2.386-8.3 3.918-3.55-2.9-6.49-6.462-8.426-10.71m4.796-31.228c2.87 2.482 6 4.393 9.314 5.883-1.965 5.49-2.639 11.08-2.257 17.298.002.029.006.059.007.089-4.749-.322-9.471-.905-14.13-1.89-.245-7.514 2.578-15.127 7.066-21.38m8.762-8.898c4.912-3.571 10.318-5.706 16.116-6.745-5.425 3.933-9.664 9.566-12.813 15.386a46.141 46.141 0 0 0-1.865 3.873c-3.102-1.378-6.035-3.156-8.74-5.526 2.17-2.68 4.644-5.054 7.302-6.988m51.438 6.996a46.251 46.251 0 0 1-6.943 4.69c-3.14-7.83-8.428-14.495-15.933-18.642 4.616.871 8.975 2.796 13.201 5.16 3.782 2.115 7.052 5.176 9.675 8.792m-23.265 25a257.17 257.17 0 0 0-.96-12.4c5.483-.523 10.938-2.142 15.964-4.568 1.238 3.736 1.991 7.693 2.264 11.713.092 1.367.132 2.683.116 3.967-5.769.662-11.555 1.03-17.384 1.288m.347 11.073a253.974 253.974 0 0 0-.232-8.675c5.754-.259 11.467-.623 17.16-1.264-.31 4.001-1.31 7.734-3.35 11.631-4.427-1.085-9.045-1.565-13.578-1.692m.012 2.4c4.133.114 8.324.53 12.363 1.464-3.182 5.467-7.078 9.942-12.76 12.91.266-4.793.4-9.585.397-14.374m-10.3 14.815c-7.414-.924-15.082-3.511-21.287-7.878 2.365-1.332 4.937-2.47 7.618-3.42a36.184 36.184 0 0 0 13.67 11.298m5.71-14.833c.724-.013 1.454-.017 2.188-.017.002 4.967-.14 9.939-.426 14.91-7.44-1.718-14.105-6.161-18.692-12.168 5.592-1.706 11.51-2.618 16.93-2.725m-2.302-10.798c1.419-.05 2.835-.102 4.249-.158.123 2.844.198 5.689.227 8.536-.729 0-1.455.004-2.175.018-5.932.116-12.36 1.132-18.385 3.056-2.226-3.437-3.796-7.296-4.505-11.389 6.859.32 13.754.173 20.589-.063m1.501-41.477c9.399 3.488 15.748 10.798 19.224 19.61-4.84 2.348-10.098 3.862-15.41 4.354a258.978 258.978 0 0 0-3.814-23.964m1.419 24.114c-2.636.088-5.273-.07-7.864-.532-4.531-.808-8.919-1.777-13.044-3.333a43.271 43.271 0 0 1 1.725-3.571c3.595-6.646 8.598-12.999 15.322-16.656a254.888 254.888 0 0 1 3.86 24.092M70.873-618.95c-.194-5.472.428-10.313 2.123-15.102 4.96 1.92 10.278 3.018 15.715 3.758 2.092.284 4.213.364 6.34.287.418 4.108.74 8.224.957 12.347a923.99 923.99 0 0 1-4.136.152c-6.933.239-13.94.403-20.904.059a28.369 28.369 0 0 1-.095-1.501m57.875-2.168a136.739 136.739 0 0 1-10.552 1.773 51.074 51.074 0 0 0-.193-4.6c-.347-4.095-1.164-8.102-2.451-11.883a50.018 50.018 0 0 0 7.46-4.942c3.687 5.875 5.766 12.905 5.736 19.652m-10.44-29.041c-11.994-10.695-30.289-12.103-44.264-4.823-14.333 7.467-23.793 23.32-21.48 39.608 2.647 18.64 24.065 28.262 40.854 28.679 7.861.223 14.831-1.72 21.554-5.76 6.697-4.024 10.996-9.658 13.909-16.905 5.55-13.81.447-30.973-10.573-40.8m-63.869 9.906a48.914 48.914 0 0 1 10.827-13.779c.87-.772-.41-2.042-1.275-1.275a50.285 50.285 0 0 0-11.108 14.144c-.543 1.025 1.012 1.936 1.556.91m.157-6.508a20.912 20.912 0 0 1 3.846-5.203c.826-.816-.447-2.09-1.274-1.273a22.502 22.502 0 0 0-4.128 5.566c-.539 1.026 1.016 1.939 1.556.91m69.458 50.921c-3.329 3.888-7.46 6.812-12.265 8.588-1.079.4-.613 2.142.479 1.74 5.1-1.887 9.521-4.92 13.06-9.055.751-.876-.518-2.156-1.274-1.273m-1.545 5.986c-.963 1.13-2.124 2.075-3.468 2.714-1.047.498-.133 2.051.91 1.556 1.464-.696 2.783-1.766 3.832-2.996.748-.877-.52-2.157-1.274-1.274m73.658-32.352c2.615-.271 5.187.16 7.775.409 1.1.106 3.39-.294 4.09.578.587.732-.017 4.703-.023 5.585-.024 3.044-.055 6.088-.082 9.132-.016 1.863-.03 3.727-.043 5.592-.02 3.099-.97 3.631-4.139 3.601-1.915-.017-5.889.68-8.186-.14a13.958 13.958 0 0 0 1.767-1.777c.766-.928-.559-2.266-1.331-1.331a13.052 13.052 0 0 1-1.941 1.895c-.02-.04-.049-.072-.065-.114-.302-.726-.417-1.834-.443-2.99l3.129-2.709c.917-.794-.419-2.121-1.331-1.331l-1.743 1.509c.03-.517.066-.995.099-1.38-.005-.56.012-1.115.024-1.672a55.137 55.137 0 0 1 3.892-3.39c.95-.752-.39-2.076-1.331-1.332a55.228 55.228 0 0 0-2.468 2.081c.037-.71.073-1.42.115-2.129 1.143-.936 2.285-1.872 3.43-2.808.937-.768-.402-2.093-1.332-1.332-.653.535-1.305 1.07-1.959 1.604.023-.42.048-.84.065-1.262.014-.334.015-.672.011-1.01 1-.738 2-1.475 2.998-2.213.964-.711.026-2.346-.95-1.625-.693.51-1.385 1.021-2.078 1.533.004-.323.012-.644.035-.962.13-1.77.162-1.82 2.015-2.012m6.454 27.352c3.468.048 7.368.48 7.759-3.762.475-5.169.086-10.61.129-15.808.02-2.512 1.431-8.373-1.707-9.563-1.786-.678-4.697-.34-6.622-.562-1.881-.216-3.714-.232-5.606-.176-3.308.099-4.958.285-4.974 3.868-.024 5.06-.455 10.118-.41 15.18-.199 2.333-.585 7.017.722 9.007 1.96 2.978 7.918 1.779 10.71 1.816m17.654-39.259c1.17-1.735 7.73-.377 9.38-.19 1.87.21 3.862-.416 4.572 1.233.632 1.467-.028 4.981-.035 6.542-.025 4.925-.047 9.85-.07 14.775l-.035 7.23c-.007 1.27.675 5.192-.064 6.263-.738 1.071-6.746 1.045-10.039.861l2.733-1.972c.972-.703.035-2.337-.95-1.625-1.49 1.075-2.978 2.15-4.467 3.223-.71-.295-1.045-.808-1.2-1.45a113.956 113.956 0 0 0 5.317-4.272c.92-.789-.417-2.115-1.332-1.331a106.968 106.968 0 0 1-4.108 3.333 16.69 16.69 0 0 0-.015-1.116c-.02-.382-.04-.761-.058-1.14a34.486 34.486 0 0 1 5.528-4.924c.978-.696.04-2.33-.95-1.625a37.152 37.152 0 0 0-4.675 3.934 43.32 43.32 0 0 1 .01-1.974 42.949 42.949 0 0 1 4.718-4.388c.947-.755-.393-2.08-1.33-1.332a42.731 42.731 0 0 0-3.318 2.95c-.002-.995.006-1.988.025-2.982a25.426 25.426 0 0 1 4.433-3.693c1.012-.658.07-2.288-.95-1.625a27.993 27.993 0 0 0-3.42 2.643c.023-.778.05-1.555.078-2.333a26.62 26.62 0 0 1 4.517-3.875c1-.675.058-2.306-.95-1.626a29.363 29.363 0 0 0-3.468 2.759c.013-.386.028-.774.04-1.16.016-.414.027-.829.042-1.243 1.194-1.462 2.554-2.762 4.109-3.842.987-.688.047-2.32-.95-1.626a22.63 22.63 0 0 0-3.073 2.58c.015-.605.023-1.212.032-1.817a23.975 23.975 0 0 1 3.568-3.023c.993-.682.053-2.314-.95-1.625a27.114 27.114 0 0 0-2.708 2.135c-.11-1.015-.23-2.29.013-2.652m-2.373 36.897c1.233 2.836 5.12 2.19 7.588 2.126 2.564-.066 7.913.891 10.084-.778 2.168-1.666 1.016-7.582 1.029-9.926.027-5.609.052-11.217.08-16.825.012-2.73.026-5.46.041-8.19.006-1.262.408-3.506-.356-4.664-1.334-2.022-6.275-1.34-8.336-1.575-2.135-.242-7.343-.967-9.263.458-2.041 1.514-.9 7.045-.951 9.219-.138 5.847-.513 11.692-.443 17.542-.18 2.431-.052 4.791.078 7.22.084 1.575-.21 3.878.449 5.393m29.287-52.702c.476-1.981 4.04-1.48 5.956-1.391 1.577.072 5.572-.015 6.905.606 1.51.705 1.066 2.006 1.057 3.784l-.069 12.851c-.05 9.956-.1 19.914-.155 29.871-.006 1.36.563 4.332-.006 5.572-.919 2.005-5.505 1.348-7.284 1.295-1.027-.032-2.237.072-3.345.01a17.79 17.79 0 0 0 1.117-1.098c.816-.892-.512-2.226-1.332-1.33a17.378 17.378 0 0 1-2 1.858 2.306 2.306 0 0 1-.516-.447 46.424 46.424 0 0 1 2.776-2.857c.887-.83-.447-2.159-1.33-1.331a46.097 46.097 0 0 0-2.143 2.166 21.196 21.196 0 0 1-.203-1.773l3.301-2.715c.937-.77-.402-2.095-1.33-1.33l-2.052 1.687c0-.383.007-.764.017-1.145a148.237 148.237 0 0 0 4.923-3.818c.941-.764-.398-2.089-1.331-1.331a135.658 135.658 0 0 1-3.484 2.721c.037-.607.077-1.205.12-1.766-.005-.296 0-.594-.004-.89a38.038 38.038 0 0 1 4.004-3.153c.994-.678.054-2.31-.951-1.625a41.902 41.902 0 0 0-3.062 2.33c0-.672-.01-1.342-.007-2.013a143.095 143.095 0 0 0 3.414-2.652c.94-.762-.398-2.087-1.332-1.33-.676.548-1.375 1.068-2.062 1.602.007-.75.019-1.5.031-2.248a32.875 32.875 0 0 1 3.97-3.237c.99-.684.05-2.317-.95-1.627a36.244 36.244 0 0 0-2.982 2.324c.02-1.105.047-2.21.072-3.314a33.62 33.62 0 0 1 2.81-2.367c.41-.306.609-.811.338-1.288-.23-.403-.882-.64-1.288-.337-.615.459-1.216.934-1.802 1.425.01-.518.02-1.036.032-1.554a42.258 42.258 0 0 1 4.43-2.956c1.046-.608.1-2.235-.95-1.625a43.732 43.732 0 0 0-3.431 2.225c.016-.744.035-1.488.047-2.231l.005-.252 3.203-2.862c.905-.809-.43-2.136-1.331-1.331-.61.545-1.22 1.088-1.828 1.633.016-.942.034-1.885.049-2.828a27.048 27.048 0 0 1 2.716-2.455c.405-.315.325-1 0-1.332-.391-.4-.931-.31-1.331 0-.469.365-.915.757-1.358 1.15.01-.816.02-1.632.024-2.448a57.003 57.003 0 0 0 3.561-2.9c.908-.807-.427-2.134-1.33-1.332a53.391 53.391 0 0 1-2.277 1.9c-.076-.857-.185-1.808-.021-2.49m-2.71 50.497c.162 2.02.403 3.258 2.417 4.04 2.008.782 4.576.495 6.696.56 2.57.077 5.482.26 7.902-.818 3.197-1.424 1.89-6.765 1.905-9.767l.096-18.498.097-18.741c.014-2.653 1.377-9.233-1.71-10.404-2.147-.814-5.456-.501-7.788-.705-2.12-.185-5.204-.404-7.298.169-3.335.912-2.025 5.699-2.045 8.442-.082 11.767-.664 23.547-.481 35.313-.255 3.439-.069 6.974.209 10.409" fill="#535354"/><path d="M264.873-591.78c-12.369.478-24.746.53-37.121.278-11.736-.24-23.479-1.074-35.216-.87-1.202.02-3.949.518-4.857-.058-1.09-.692-1.01-3.407-1.062-4.456a324.777 324.777 0 0 1-.29-7.879c-.129-5.211-.123-10.424-.063-15.636.122-10.635.335-21.261.12-31.898-.032-1.613-2.542-1.618-2.51 0 .237 11.693-.07 23.375-.15 35.067-.038 5.56.014 11.122.224 16.68.125 3.343-1.022 9.27 3.064 10.542 2.1.654 4.716.161 6.877.118a146.05 146.05 0 0 1 9.093.092c6.66.279 13.322.524 19.986.696 13.969.362 27.941.373 41.905-.166 1.61-.062 1.618-2.572 0-2.51M55.779 28.698c-2.252 8.742-3.896 17.449-5.426 26.356-6.887-5.358-14.228-9.989-21.35-14.935.052-.077.1-.156.157-.233.832-1.102 1.888-2.068 2.81-3.078 2.084-2.284 4.168-4.57 6.25-6.857C46 21.407 53.766 12.846 61.53 4.282c-1.695 8.203-3.668 16.325-5.752 24.416m-31.11 28.957c1.032-4.204 1.751-8.514 2.662-12.747.23-1.072.435-2.083.78-3.036a435.288 435.288 0 0 0 4.786 3.27c-2.836 4.091-5.556 8.284-8.227 12.513m33.728-53.47c-12.27 10.753-24.347 21.904-36.031 33.41-6.14-1.596-12.27-3.123-18.488-4.236 9.521-5.184 18.943-10.602 28.559-15.563 8.666-4.472 17.142-9.502 25.96-13.61M27.6 39.76c-.237.176-.4.48-.434.804-.342.724-.617 1.575-.876 2.73-1.063 4.77-1.831 9.652-3.025 14.39-.005-6.315.1-12.628-.021-18.944 10.7-10.54 21.73-20.778 32.935-30.686-6.675 7.358-13.35 14.72-20.041 22.065a7552.345 7552.345 0 0 1-6.19 6.79c-1.05 1.15-1.786 1.943-2.348 2.851M62.871.057C52.416 4.385 42.593 10.361 32.483 15.566 21.689 21.123 11.137 27.233.433 32.996c-.658.354-.55 1.72.215 1.842 7.018 1.105 13.906 2.797 20.802 4.588.132 7.865-.07 15.73.048 23.598.015 1.048 1.181 1.306 1.68.508 3.654-5.854 7.336-11.715 11.258-17.352 5.448 3.67 10.908 7.331 16.084 11.447.452.36 1.222.003 1.325-.601 1.598-9.41 3.3-18.58 5.672-27.792 2.382-9.248 4.619-18.536 6.463-27.938.134-.686-.423-1.524-1.109-1.239" fill="#535354"/><path d="M16.18 32.824l6.49-4c.762-.471.08-1.777-.683-1.305l-6.49 4c-.761.47-.08 1.775.684 1.305m6.148-2.068l-3.052 1.773c-.772.45-.089 1.754.683 1.305 1.017-.592 2.034-1.182 3.052-1.773.772-.45.089-1.753-.683-1.305" fill="#535354"/><path d="M99.974-471.287L86.6-506.07l66.18 30.43-52.806 4.353zm58.244-5.228l-27.3-12.554 34.709-23.515-7.409 36.069z" fill="#fff"/><path d="M88.793-446.28c12.406-18.645 37.025-16.783 56.614-17.003 7.27-.082 15.95.356 21.57-5.113 4.99-4.856 6.616-12.259 7.88-18.825.378-1.965-2.633-2.806-3.013-.83-1.7 8.829-4.13 18.855-14.294 20.948-10.832 2.23-22.723.255-33.722 1.006-14.506.992-29.321 5.596-37.734 18.24-1.116 1.679 1.589 3.246 2.699 1.577" fill="#fff"/><path d="M239.117-478.236l22.68 13.362c3.474 2.047 6.621-3.353 3.155-5.397l-22.68-13.361c-3.474-2.047-6.622 3.353-3.155 5.396m24.049-17.326l5.81 15.75c1.381 3.741 7.424 2.124 6.027-1.663l-5.81-15.748c-1.38-3.743-7.423-2.124-6.027 1.661m32.832-6.137l-4.016 12.996c-1.191 3.853 4.84 5.5 6.026 1.663l4.017-12.998c1.19-3.85-4.84-5.498-6.027-1.66M309.52-473.7c5.459-4.181 11.401-7.479 17.897-9.75 3.773-1.319 2.15-7.359-1.66-6.026-7.006 2.449-13.496 5.864-19.392 10.38-3.15 2.412-.04 7.844 3.155 5.396" fill="#2e4b50"/><g clip-path="url(#a)" opacity=".9" transform="matrix(1.25 0 0 -1.25 -3.242 41.31)"><path d="M315.986 425.009c49.004 4.118 100.394 8.288 147.454-9.178.289-.108 1.393.353 1 .498-47.197 17.518-98.787 13.344-147.934 9.214-.347-.03-1.325-.602-.52-.534" fill="#fff"/></g><g clip-path="url(#b)" opacity=".9" transform="matrix(1.25 0 0 -1.25 -3.242 41.31)"><path d="M458.33 409.205c3.305-.016 6.696-.263 9.99-.047.776.051 1.8.061 2.425.628 1.346 1.223.76 4.216.654 5.75-.262 3.75-1.145 7.363-2.466 10.872-.108.29-1.316-.088-1.226-.328 1.543-4.1 2.462-8.345 2.542-12.737.014-.746.227-2.625-.251-3.184-.627-.73-3.2-.49-4.05-.486l-6.822.033c-.262.002-1.388-.498-.795-.5" fill="#fff"/></g><g clip-path="url(#c)" opacity=".9" transform="matrix(1.25 0 0 -1.25 -3.242 41.31)"><path d="M545.606 322.37a325.861 325.861 0 0 1-46.343 15.961c-.5.131-1.45-.6-.717-.792a325.861 325.861 0 0 0 46.343-15.96c.486-.21 1.423.487.717.791" fill="#fff"/></g><g clip-path="url(#d)" opacity=".9" transform="matrix(1.25 0 0 -1.25 -3.242 41.31)"><path d="M498.863 332.581a40.258 40.258 0 0 0-6.483 10.496l-1.12-.39 13.513-2.038c.277-.042 1.307.407 1.014.452l-13.513 2.037c-.142.022-1.226-.14-1.12-.39a40.237 40.237 0 0 1 6.483-10.496c.233-.273 1.286.258 1.226.329" fill="#fff"/></g><g clip-path="url(#e)" opacity=".9" transform="matrix(1.25 0 0 -1.25 -3.242 41.31)"><path d="M317.259 334.458c32.153-.775 64.995-1.35 95.836 9.136.822.279.056.516-.442.347-30.418-10.342-62.908-9.696-94.612-8.932-.295.007-1.403-.536-.782-.551" fill="#fff"/></g><g clip-path="url(#f)" opacity=".9" transform="matrix(1.25 0 0 -1.25 -3.242 41.31)"><path d="M409.736 352.131l7.156-1.38c2-.387 4.455-.556 6.078-1.889 4.714-3.87-4.682-10.25-7.645-12.07-.704-.43.371-.573.754-.338 3.008 1.847 10.962 6.898 9.256 11.377-.64 1.68-2.464 2.38-4.07 2.82-3.503.958-7.205 1.437-10.771 2.125-.375.072-1.44-.513-.757-.645" fill="#fff"/></g><g clip-path="url(#g)" opacity=".9" transform="matrix(1.25 0 0 -1.25 -3.242 41.31)"><path d="M450.234 404.75a415.012 415.012 0 0 1-129.96-38.274c-.752-.365-.082-1.047.549-.742a412.901 412.901 0 0 0 129.307 38.1c.686.083.937 1.017.104.915" fill="#fff"/></g><g clip-path="url(#h)" opacity=".9" transform="matrix(1.25 0 0 -1.25 -3.242 41.31)"><path d="M315.699 373.517l-7.715-10.67c-.827-1.143-4.383-4.579-3.444-6.384.923-1.775 4.823-1.137 6.303-1.19 4.135-.147 8.27-.139 12.407-.019.703.021.94.938.105.914a195.063 195.063 0 0 0-8.167-.083 179.17 179.17 0 0 0-5.285.148c-2.265.097-4.18-.558-2.92 3.432.69 2.186 3.51 4.854 4.873 6.74l4.873 6.738c.457.633-.693.84-1.03.374" fill="#fff"/></g><g clip-path="url(#i)" opacity=".9" transform="matrix(1.25 0 0 -1.25 -3.242 41.31)"><path d="M523.53 441.619a200.883 200.883 0 0 0 81.34 2.323c.41-.073 1.444.566.743.69a203.116 203.116 0 0 1-82.257-2.366c-.746-.177-.57-.823.173-.647" fill="#fff"/></g><g clip-path="url(#j)" opacity=".9" transform="matrix(1.25 0 0 -1.25 -3.242 41.31)"><path d="M603.612 436.178c2.795 1.24 5.875 2.288 8.544 3.787.997.56 1.944.906 2.295 2.15.374 1.327-.489 2.678-1.112 3.775-1.502 2.644-3.267 5.177-4.89 7.75-.248.391-1.434-.028-1.133-.506l2.795-4.428c.865-1.37 2.66-3.37 2.934-4.974.65-3.796-7.412-5.839-9.942-6.96-.774-.343-.077-.853.51-.594" fill="#fff"/></g><g clip-path="url(#k)" opacity=".9" transform="matrix(1.25 0 0 -1.25 -3.242 41.31)"><path d="M614.477 429.796L592.07 414.91c-.54-.36.687-.315.964-.13 7.47 4.961 14.938 9.924 22.407 14.886.542.36-.686.316-.964.131" fill="#fff"/></g><g clip-path="url(#l)" opacity=".9" transform="matrix(1.25 0 0 -1.25 -3.242 41.31)"><path d="M587.879 418.974l-.37-5.184c-.075-1.043-.617-2.937.31-3.759.67-.594 2.079-.545 2.87-.608 1.459-.115 2.915-.102 4.374-.022.334.02 1.334.547.529.503-1.37-.076-2.741-.086-4.11.027-1.63.135-2.8.154-2.905 1.966-.141 2.396.357 5.01.528 7.406.013.178-1.2.041-1.226-.329" fill="#fff"/></g><g clip-path="url(#m)" opacity=".9" transform="matrix(1.25 0 0 -1.25 -3.242 41.31)"><path d="M571.139 402.687a207.636 207.636 0 0 0-33.52 19.102c-.357.25-1.48-.267-.967-.625a207.55 207.55 0 0 1 33.52-19.102c.393-.178 1.505.38.967.625" fill="#fff"/></g><g clip-path="url(#n)" opacity=".9" transform="matrix(1.25 0 0 -1.25 -3.242 41.31)"><path d="M530.673 417.176l-.732 5.139c-.116.812-.433 1.765-.366 2.57.111 1.35.497 1.702 1.743 2.017 3.114.786 7.177.283 10.381.148.477-.021 1.3.675.473.71-2.556.107-5.11.125-7.666.017-1.556-.065-3.798.185-5.234-.547-.819-.418-.987-.9-1.022-1.794-.108-2.742.81-5.87 1.197-8.59.06-.421 1.293-.138 1.226.33" fill="#fff"/></g></svg>