<svg xmlns="http://www.w3.org/2000/svg" width="64" height="64"><defs><clipPath clipPathUnits="userSpaceOnUse" id="a"><path d="M315.676 429.168h148.848v-13.354H315.676v13.354z"/></clipPath><clipPath clipPathUnits="userSpaceOnUse" id="b"><path d="M458.16 426.513h13.457V409.07H458.16v17.443z"/></clipPath><clipPath clipPathUnits="userSpaceOnUse" id="c"><path d="M498.278 338.347h47.582v-16.808h-47.582v16.808z"/></clipPath><clipPath clipPathUnits="userSpaceOnUse" id="d"><path d="M491.147 343.14h14.692v-10.965h-14.692v10.965z"/></clipPath><clipPath clipPathUnits="userSpaceOnUse" id="e"><path d="M317.073 343.998h96.384v-9.914h-96.384v9.914z"/></clipPath><clipPath clipPathUnits="userSpaceOnUse" id="f"><path d="M409.513 352.782h16.059v-16.44h-16.059v16.44z"/></clipPath><clipPath clipPathUnits="userSpaceOnUse" id="g"><path d="M319.941 404.757h130.818v-39.099H319.941v39.099z"/></clipPath><clipPath clipPathUnits="userSpaceOnUse" id="h"><path d="M304.383 373.77h19.503v-18.607h-19.503v18.607z"/></clipPath><clipPath clipPathUnits="userSpaceOnUse" id="i"><path d="M522.876 447.742h82.974v-6.153h-82.974v6.153z"/></clipPath><clipPath clipPathUnits="userSpaceOnUse" id="j"><path d="M602.76 453.794h11.782v-17.687H602.76v17.687z"/></clipPath><clipPath clipPathUnits="userSpaceOnUse" id="k"><path d="M591.934 429.936h23.644v-15.298h-23.644v15.298z"/></clipPath><clipPath clipPathUnits="userSpaceOnUse" id="l"><path d="M587.283 419.381h8.614V409.34h-8.614v10.041z"/></clipPath><clipPath clipPathUnits="userSpaceOnUse" id="m"><path d="M536.52 421.855h34.763v-19.828H536.52v19.828z"/></clipPath><clipPath clipPathUnits="userSpaceOnUse" id="n"><path d="M528.241 427.849h14.284V416.64h-14.284v11.209z"/></clipPath></defs><path d="M212.87-383.901H55.37v-138.087h157.5V-383.9zm580.568 88.116H360V-526.85h433.438v231.065z" fill="#2e4b50"/><path d="M196.116-19.8a30.751 30.751 0 0 0-5.64-2.435c1.704-3.614 2.545-7.119 2.777-10.866 2.85-.387 5.693-.876 8.538-1.494a26.59 26.59 0 0 1-.384 2.914c-.871 4.557-2.732 8.557-5.29 11.88m-14.84 9.817c3.47-2.699 6.085-6.269 8.27-10.395 1.81.56 3.568 1.275 5.244 2.18-3.614 4.018-8.328 6.847-13.514 8.215m-37.844-16.82a22.958 22.958 0 0 1-1.679-6.36c3.798.815 7.642 1.3 11.506 1.566.525 3.815 1.836 7.43 3.736 10.663-2.38.932-4.65 2.062-6.73 3.387-2.88-2.507-5.263-5.585-6.833-9.255m3.89-26.987c2.325 2.146 4.863 3.797 7.552 5.085-1.594 4.744-2.14 9.575-1.831 14.947.002.025.005.051.006.077-3.85-.277-7.68-.782-11.458-1.632-.198-6.494 2.09-13.073 5.73-18.477m7.105-7.689c3.983-3.086 8.367-4.93 13.068-5.828-4.399 3.398-7.836 8.266-10.39 13.296a41.066 41.066 0 0 0-1.512 3.346c-2.516-1.19-4.893-2.727-7.088-4.775 1.76-2.315 3.767-4.367 5.922-6.039m41.71 6.046a37.464 37.464 0 0 1-5.63 4.053c-2.545-6.767-6.834-12.526-12.92-16.11 3.744.753 7.278 2.417 10.705 4.46 3.067 1.827 5.718 4.472 7.846 7.597m-18.866 21.604c-.177-3.579-.439-7.15-.778-10.716 4.446-.452 8.869-1.85 12.945-3.947 1.003 3.228 1.614 6.648 1.835 10.122a45.47 45.47 0 0 1 .095 3.427c-4.678.573-9.37.892-14.097 1.114m.281 9.568c-.022-2.5-.085-5-.187-7.496 4.665-.224 9.297-.538 13.915-1.092-.253 3.458-1.063 6.683-2.718 10.051-3.59-.938-7.333-1.352-11.01-1.463m.01 2.074c3.351.099 6.75.458 10.025 1.265-2.58 4.725-5.74 8.592-10.347 11.157.216-4.142.324-8.283.322-12.422m-8.352 12.803c-6.012-.798-12.23-3.034-17.262-6.807 1.918-1.152 4.004-2.136 6.178-2.957 2.855 4.163 6.713 7.564 11.084 9.764m4.63-12.818c.588-.012 1.18-.015 1.775-.015.002 4.293-.113 8.589-.346 12.885-6.033-1.484-11.437-5.325-15.156-10.515 4.534-1.474 9.333-2.263 13.727-2.355m-1.866-9.331c1.15-.043 2.3-.088 3.446-.137.1 2.458.16 4.916.184 7.377-.59-.001-1.18.003-1.764.015-4.81.1-10.022.979-14.908 2.641a27.45 27.45 0 0 1-3.653-9.841c5.562.276 11.153.149 16.695-.055m1.218-35.842c7.62 3.013 12.77 9.33 15.588 16.946-3.925 2.028-8.188 3.336-12.496 3.762a237.427 237.427 0 0 0-3.092-20.708m1.15 20.838c-2.138.075-4.275-.06-6.377-.46-3.674-.698-7.232-1.535-10.577-2.88.41-1.024.874-2.05 1.4-3.086 2.914-5.744 6.97-11.233 12.423-14.394a233.663 233.663 0 0 1 3.131 20.82m-19.395 11.68c-.158-4.727.346-8.91 1.72-13.049 4.024 1.658 8.336 2.608 12.744 3.247 1.697.245 3.417.314 5.142.249.338 3.55.599 7.106.775 10.669-1.116.046-2.234.09-3.354.131-5.621.207-11.304.348-16.95.051-.036-.43-.063-.862-.077-1.297m46.93-1.873a104.632 104.632 0 0 1-8.557 1.532 47.018 47.018 0 0 0-.156-3.974c-.282-3.54-.944-7.002-1.988-10.27a40.451 40.451 0 0 0 6.05-4.271c2.99 5.077 4.675 11.152 4.65 16.983m-8.465-25.096c-9.725-9.242-24.56-10.459-35.893-4.168-11.623 6.452-19.294 20.152-17.419 34.227 2.147 16.108 19.515 24.423 33.13 24.783 6.374.194 12.026-1.486 17.477-4.976 5.43-3.479 8.917-8.347 11.278-14.61 4.5-11.934.363-26.765-8.573-35.256m-51.79 8.56c2.251-4.53 5.184-8.504 8.78-11.907.704-.668-.332-1.765-1.034-1.102-3.684 3.487-6.702 7.582-9.008 12.223-.44.885.821 1.673 1.262.786m.128-5.624a18.047 18.047 0 0 1 3.118-4.496c.67-.705-.363-1.806-1.033-1.1a19.413 19.413 0 0 0-3.348 4.81c-.436.887.825 1.675 1.262.786m56.323 44.003c-2.699 3.361-6.049 5.888-9.945 7.422-.875.345-.497 1.85.388 1.503 4.135-1.63 7.72-4.25 10.59-7.824.61-.757-.42-1.863-1.033-1.1m-1.252 5.173c-.781.975-1.723 1.793-2.812 2.345-.85.43-.109 1.773.736 1.345 1.188-.602 2.258-1.526 3.108-2.59.607-.758-.422-1.864-1.033-1.1M9.677 31.207c2.032-.267 4.03.157 6.041.402.855.104 2.633-.29 3.177.569.456.718-.013 4.622-.018 5.49-.018 2.992-.042 5.984-.063 8.976-.012 1.832-.024 3.664-.034 5.497-.015 3.046-.753 3.57-3.215 3.54-1.488-.017-4.576.667-6.36-.139.495-.53.957-1.11 1.372-1.746.596-.912-.434-2.228-1.034-1.308-.455.694-.96 1.31-1.508 1.862-.016-.039-.038-.07-.05-.112-.235-.713-.324-1.802-.345-2.939l2.431-2.662c.713-.78-.325-2.086-1.034-1.309-.452.495-.902.99-1.354 1.483.023-.507.052-.978.077-1.356-.004-.55.01-1.096.018-1.643a47.843 47.843 0 0 1 3.025-3.334c.738-.738-.303-2.04-1.035-1.308a47.383 47.383 0 0 0-1.917 2.045c.028-.698.056-1.395.09-2.092l2.664-2.761c.728-.755-.312-2.057-1.035-1.309L8.048 38.63c.018-.413.037-.826.05-1.241.011-.328.012-.66.01-.993l2.329-2.175c.748-.7.02-2.306-.739-1.597L8.084 34.13c.003-.317.009-.633.027-.945.101-1.741.126-1.79 1.566-1.978m5.014 26.887c2.695.047 5.725.472 6.029-3.698.369-5.081.067-10.43.1-15.539.015-2.47 1.112-8.231-1.326-9.401-1.388-.666-3.65-.334-5.145-.552-1.462-.212-2.886-.228-4.356-.173-2.57.097-3.852.28-3.865 3.802-.018 4.974-.353 9.946-.318 14.922-.155 2.294-.455 6.898.561 8.854 1.522 2.927 6.152 1.748 8.32 1.785m13.718-38.591c.908-1.706 6.005-.371 7.287-.188 1.453.208 3.001-.408 3.553 1.213.491 1.442-.022 4.896-.027 6.431-.02 4.841-.036 9.683-.055 14.524l-.027 7.107c-.005 1.248.524 5.103-.05 6.156-.573 1.053-5.241 1.027-7.8.846l2.124-1.939c.755-.69.027-2.296-.738-1.597l-3.47 3.169c-.552-.29-.813-.795-.933-1.427a96.122 96.122 0 0 0 4.13-4.198c.716-.775-.323-2.08-1.034-1.309a90.537 90.537 0 0 1-3.192 3.277c.003-.361.005-.728-.012-1.097l-.044-1.12c1.296-1.804 2.723-3.426 4.294-4.84.76-.685.031-2.291-.738-1.598a31.846 31.846 0 0 0-3.632 3.867c-.01-.645-.006-1.292.008-1.94a38.13 38.13 0 0 1 3.666-4.314c.735-.743-.306-2.045-1.034-1.309-.902.91-1.758 1.88-2.578 2.9-.001-.978.005-1.955.02-2.932 1.04-1.369 2.182-2.588 3.444-3.63.786-.647.054-2.25-.738-1.597a23.293 23.293 0 0 0-2.658 2.597c.018-.764.04-1.528.061-2.292 1.06-1.432 2.224-2.71 3.51-3.81.776-.663.045-2.266-.738-1.598a24.681 24.681 0 0 0-2.695 2.712l.032-1.14c.012-.407.02-.815.032-1.222.927-1.437 1.984-2.715 3.192-3.777.768-.676.037-2.28-.738-1.599a19.385 19.385 0 0 0-2.387 2.537c.012-.595.017-1.191.024-1.786a20.6 20.6 0 0 1 2.773-2.972c.771-.67.04-2.275-.738-1.598a22.72 22.72 0 0 0-2.105 2.1c-.085-.999-.178-2.252.011-2.607m-1.844 36.269c.958 2.788 3.978 2.153 5.896 2.09 1.992-.065 6.148.876 7.835-.764 1.684-1.638.79-7.454.799-9.758.021-5.513.04-11.027.062-16.539.01-2.683.02-5.367.032-8.05.005-1.241.317-3.447-.277-4.585-1.036-1.988-4.875-1.318-6.477-1.548-1.658-.238-5.705-.951-7.196.45-1.586 1.488-.7 6.925-.74 9.062-.106 5.748-.398 11.493-.343 17.244-.141 2.39-.041 4.71.06 7.097.065 1.548-.163 3.812.349 5.3M49.32 3.966c.37-1.947 3.14-1.454 4.628-1.367 1.225.071 4.33-.015 5.365.596 1.174.693.828 1.972.821 3.72l-.053 12.632-.12 29.363c-.005 1.337.436 4.258-.005 5.477-.714 1.97-4.278 1.325-5.66 1.273-.798-.031-1.738.07-2.599.01.298-.346.593-.698.868-1.08.634-.877-.398-2.188-1.035-1.307-.478.661-1 1.267-1.555 1.826a1.996 1.996 0 0 1-.4-.438 42.695 42.695 0 0 1 2.157-2.81c.689-.815-.347-2.121-1.033-1.308a41.84 41.84 0 0 0-1.666 2.13 26.165 26.165 0 0 1-.157-1.743l2.565-2.669c.727-.757-.313-2.06-1.035-1.308l-1.593 1.658c0-.376.006-.75.013-1.125a123.517 123.517 0 0 0 3.825-3.753c.731-.75-.309-2.053-1.034-1.308-.89.911-1.794 1.8-2.707 2.675.029-.598.06-1.185.093-1.737-.004-.29 0-.583-.003-.874a31.861 31.861 0 0 1 3.111-3.1c.772-.667.042-2.27-.74-1.597a34.684 34.684 0 0 0-2.378 2.29c0-.66-.007-1.319-.005-1.979.891-.857 1.782-1.715 2.652-2.606.731-.75-.309-2.052-1.034-1.309-.526.54-1.069 1.051-1.603 1.576.006-.736.015-1.474.024-2.21a27.874 27.874 0 0 1 3.085-3.182c.77-.672.039-2.277-.738-1.599a30.249 30.249 0 0 0-2.317 2.285c.016-1.087.036-2.173.056-3.258a28.832 28.832 0 0 1 2.183-2.327 1.11 1.11 0 0 0 .262-1.266c-.178-.397-.684-.63-1-.331-.478.45-.945.917-1.4 1.4.008-.508.015-1.018.025-1.527a33.483 33.483 0 0 1 3.442-2.906c.813-.597.077-2.197-.738-1.597a34.331 34.331 0 0 0-2.666 2.187c.012-.731.027-1.462.037-2.193 0-.083.001-.165.003-.247l2.489-2.814c.703-.795-.334-2.1-1.035-1.309l-1.42 1.606c.013-.926.027-1.853.038-2.78a23.774 23.774 0 0 1 2.11-2.414c.315-.31.253-.983 0-1.308-.303-.394-.723-.306-1.034 0-.364.358-.71.743-1.054 1.13.007-.802.014-1.605.018-2.407.95-.907 1.877-1.85 2.767-2.85.705-.793-.332-2.098-1.034-1.31a45.64 45.64 0 0 1-1.769 1.868c-.06-.843-.144-1.778-.016-2.449m-2.106 49.64c.126 1.985.314 3.203 1.878 3.972 1.56.768 3.556.485 5.203.549 1.997.076 4.259.256 6.14-.804 2.484-1.4 1.468-6.65 1.48-9.601.026-6.061.05-12.122.074-18.183l.076-18.423c.01-2.607 1.07-9.075-1.329-10.226-1.668-.8-4.239-.493-6.051-.693-1.648-.182-4.043-.397-5.67.165-2.591.897-1.574 5.602-1.59 8.3-.063 11.566-.515 23.145-.373 34.711-.198 3.38-.054 6.856.162 10.232" fill="#535354"/><path d="M63.06 61.117c-9.61.47-19.228.52-28.843.273-9.118-.236-18.242-1.056-27.362-.856-.933.021-3.068.51-3.773-.056-.848-.68-.785-3.35-.825-4.38-.1-2.581-.175-5.163-.226-7.745-.1-5.123-.095-10.247-.048-15.37.094-10.455.26-20.9.093-31.356C2.05.041.1.036.126 1.627.309 13.121.07 24.605.009 36.097c-.03 5.467.01 10.933.174 16.396.097 3.287-.794 9.114 2.38 10.364 1.632.642 3.665.158 5.344.115a89.715 89.715 0 0 1 7.065.091c5.174.274 10.351.515 15.529.684 10.853.356 21.71.367 32.559-.163 1.25-.061 1.256-2.529 0-2.467m-.405-116.08c-2.252 8.741-3.896 17.448-5.426 26.356-6.886-5.358-14.227-9.99-21.35-14.936.052-.077.1-.156.157-.233.832-1.102 1.888-2.068 2.811-3.078 2.083-2.284 4.167-4.57 6.249-6.856 7.78-8.545 15.547-17.105 23.312-25.67-1.696 8.203-3.669 16.325-5.753 24.417m-31.11 28.956c1.032-4.204 1.752-8.514 2.662-12.747.23-1.072.436-2.083.78-3.036a435.288 435.288 0 0 0 4.787 3.27c-2.836 4.091-5.557 8.284-8.228 12.513m33.729-53.469c-12.27 10.752-24.348 21.903-36.032 33.41-6.14-1.597-12.27-3.124-18.488-4.237 9.521-5.184 18.943-10.602 28.56-15.563 8.665-4.472 17.141-9.502 25.96-13.61M34.477-43.901c-.238.175-.401.48-.435.803-.342.724-.617 1.576-.875 2.73-1.064 4.77-1.832 9.652-3.026 14.39-.005-6.314.1-12.628-.021-18.943 10.7-10.54 21.731-20.78 32.936-30.687-6.676 7.359-13.351 14.72-20.042 22.065a7552.345 7552.345 0 0 1-6.19 6.79c-1.05 1.15-1.785 1.943-2.347 2.852m35.27-39.704C59.293-79.276 49.47-73.3 39.36-68.095c-10.794 5.557-21.345 11.667-32.05 17.43-.657.354-.55 1.72.216 1.841 7.017 1.105 13.905 2.798 20.802 4.588.13 7.865-.07 15.73.047 23.598.015 1.048 1.181 1.306 1.68.508 3.655-5.854 7.336-11.715 11.258-17.352 5.448 3.67 10.909 7.331 16.085 11.447.452.36 1.22.003 1.324-.6 1.599-9.41 3.3-18.58 5.672-27.793 2.383-9.248 4.619-18.536 6.463-27.938.134-.686-.423-1.523-1.108-1.239" fill="#535354"/><path d="M23.057-50.838c2.163-1.334 4.325-2.667 6.49-4 .761-.47.08-1.777-.684-1.305l-6.49 4c-.76.47-.079 1.775.684 1.305m6.148-2.068l-3.052 1.774c-.771.449-.088 1.753.683 1.304l3.052-1.773c.772-.45.089-1.753-.683-1.305" fill="#535354"/><path d="M99.974-471.287L86.6-506.07l66.18 30.43-52.806 4.353zm58.244-5.228l-27.3-12.554 34.709-23.515-7.409 36.069z" fill="#fff"/><path d="M88.793-446.28c12.406-18.645 37.025-16.783 56.614-17.003 7.27-.082 15.95.356 21.57-5.113 4.99-4.856 6.616-12.259 7.88-18.825.378-1.965-2.633-2.806-3.013-.83-1.7 8.829-4.13 18.855-14.294 20.948-10.832 2.23-22.723.255-33.722 1.006-14.506.992-29.321 5.596-37.734 18.24-1.116 1.679 1.589 3.246 2.699 1.577" fill="#fff"/><path d="M239.117-478.236l22.68 13.362c3.474 2.047 6.621-3.353 3.155-5.397l-22.68-13.361c-3.474-2.047-6.622 3.353-3.155 5.396m24.049-17.326l5.81 15.75c1.381 3.741 7.424 2.124 6.027-1.663l-5.81-15.748c-1.38-3.743-7.423-2.124-6.027 1.661m32.832-6.137l-4.016 12.996c-1.191 3.853 4.84 5.5 6.026 1.663l4.017-12.998c1.19-3.85-4.84-5.498-6.027-1.66M309.52-473.7c5.459-4.181 11.401-7.479 17.897-9.75 3.773-1.319 2.15-7.359-1.66-6.026-7.006 2.449-13.496 5.864-19.392 10.38-3.15 2.412-.04 7.844 3.155 5.396" fill="#2e4b50"/><g clip-path="url(#a)" opacity=".9" transform="matrix(1.25 0 0 -1.25 -3.242 41.31)"><path d="M315.986 425.009c49.004 4.118 100.394 8.288 147.454-9.178.289-.108 1.393.353 1 .498-47.197 17.518-98.787 13.344-147.934 9.214-.347-.03-1.325-.602-.52-.534" fill="#fff"/></g><g clip-path="url(#b)" opacity=".9" transform="matrix(1.25 0 0 -1.25 -3.242 41.31)"><path d="M458.33 409.205c3.305-.016 6.696-.263 9.99-.047.776.051 1.8.061 2.425.628 1.346 1.223.76 4.216.654 5.75-.262 3.75-1.145 7.363-2.466 10.872-.108.29-1.316-.088-1.226-.328 1.543-4.1 2.462-8.345 2.542-12.737.014-.746.227-2.625-.251-3.184-.627-.73-3.2-.49-4.05-.486l-6.822.033c-.262.002-1.388-.498-.795-.5" fill="#fff"/></g><g clip-path="url(#c)" opacity=".9" transform="matrix(1.25 0 0 -1.25 -3.242 41.31)"><path d="M545.606 322.37a325.861 325.861 0 0 1-46.343 15.961c-.5.131-1.45-.6-.717-.792a325.861 325.861 0 0 0 46.343-15.96c.486-.21 1.423.487.717.791" fill="#fff"/></g><g clip-path="url(#d)" opacity=".9" transform="matrix(1.25 0 0 -1.25 -3.242 41.31)"><path d="M498.863 332.581a40.258 40.258 0 0 0-6.483 10.496l-1.12-.39 13.513-2.038c.277-.042 1.307.407 1.014.452l-13.513 2.037c-.142.022-1.226-.14-1.12-.39a40.237 40.237 0 0 1 6.483-10.496c.233-.273 1.286.258 1.226.329" fill="#fff"/></g><g clip-path="url(#e)" opacity=".9" transform="matrix(1.25 0 0 -1.25 -3.242 41.31)"><path d="M317.259 334.458c32.153-.775 64.995-1.35 95.836 9.136.822.279.056.516-.442.347-30.418-10.342-62.908-9.696-94.612-8.932-.295.007-1.403-.536-.782-.551" fill="#fff"/></g><g clip-path="url(#f)" opacity=".9" transform="matrix(1.25 0 0 -1.25 -3.242 41.31)"><path d="M409.736 352.131l7.156-1.38c2-.387 4.455-.556 6.078-1.889 4.714-3.87-4.682-10.25-7.645-12.07-.704-.43.371-.573.754-.338 3.008 1.847 10.962 6.898 9.256 11.377-.64 1.68-2.464 2.38-4.07 2.82-3.503.958-7.205 1.437-10.771 2.125-.375.072-1.44-.513-.757-.645" fill="#fff"/></g><g clip-path="url(#g)" opacity=".9" transform="matrix(1.25 0 0 -1.25 -3.242 41.31)"><path d="M450.234 404.75a415.012 415.012 0 0 1-129.96-38.274c-.752-.365-.082-1.047.549-.742a412.901 412.901 0 0 0 129.307 38.1c.686.083.937 1.017.104.915" fill="#fff"/></g><g clip-path="url(#h)" opacity=".9" transform="matrix(1.25 0 0 -1.25 -3.242 41.31)"><path d="M315.699 373.517l-7.715-10.67c-.827-1.143-4.383-4.579-3.444-6.384.923-1.775 4.823-1.137 6.303-1.19 4.135-.147 8.27-.139 12.407-.019.703.021.94.938.105.914a195.063 195.063 0 0 0-8.167-.083 179.17 179.17 0 0 0-5.285.148c-2.265.097-4.18-.558-2.92 3.432.69 2.186 3.51 4.854 4.873 6.74l4.873 6.738c.457.633-.693.84-1.03.374" fill="#fff"/></g><g clip-path="url(#i)" opacity=".9" transform="matrix(1.25 0 0 -1.25 -3.242 41.31)"><path d="M523.53 441.619a200.883 200.883 0 0 0 81.34 2.323c.41-.073 1.444.566.743.69a203.116 203.116 0 0 1-82.257-2.366c-.746-.177-.57-.823.173-.647" fill="#fff"/></g><g clip-path="url(#j)" opacity=".9" transform="matrix(1.25 0 0 -1.25 -3.242 41.31)"><path d="M603.612 436.178c2.795 1.24 5.875 2.288 8.544 3.787.997.56 1.944.906 2.295 2.15.374 1.327-.489 2.678-1.112 3.775-1.502 2.644-3.267 5.177-4.89 7.75-.248.391-1.434-.028-1.133-.506l2.795-4.428c.865-1.37 2.66-3.37 2.934-4.974.65-3.796-7.412-5.839-9.942-6.96-.774-.343-.077-.853.51-.594" fill="#fff"/></g><g clip-path="url(#k)" opacity=".9" transform="matrix(1.25 0 0 -1.25 -3.242 41.31)"><path d="M614.477 429.796L592.07 414.91c-.54-.36.687-.315.964-.13 7.47 4.961 14.938 9.924 22.407 14.886.542.36-.686.316-.964.131" fill="#fff"/></g><g clip-path="url(#l)" opacity=".9" transform="matrix(1.25 0 0 -1.25 -3.242 41.31)"><path d="M587.879 418.974l-.37-5.184c-.075-1.043-.617-2.937.31-3.759.67-.594 2.079-.545 2.87-.608 1.459-.115 2.915-.102 4.374-.022.334.02 1.334.547.529.503-1.37-.076-2.741-.086-4.11.027-1.63.135-2.8.154-2.905 1.966-.141 2.396.357 5.01.528 7.406.013.178-1.2.041-1.226-.329" fill="#fff"/></g><g clip-path="url(#m)" opacity=".9" transform="matrix(1.25 0 0 -1.25 -3.242 41.31)"><path d="M571.139 402.687a207.636 207.636 0 0 0-33.52 19.102c-.357.25-1.48-.267-.967-.625a207.55 207.55 0 0 1 33.52-19.102c.393-.178 1.505.38.967.625" fill="#fff"/></g><g clip-path="url(#n)" opacity=".9" transform="matrix(1.25 0 0 -1.25 -3.242 41.31)"><path d="M530.673 417.176l-.732 5.139c-.116.812-.433 1.765-.366 2.57.111 1.35.497 1.702 1.743 2.017 3.114.786 7.177.283 10.381.148.477-.021 1.3.675.473.71-2.556.107-5.11.125-7.666.017-1.556-.065-3.798.185-5.234-.547-.819-.418-.987-.9-1.022-1.794-.108-2.742.81-5.87 1.197-8.59.06-.421 1.293-.138 1.226.33" fill="#fff"/></g></svg>